# xmcd CD database file
#
# Track frame offsets:
#	150
#	22264
#	37581
#	51233
#	65079
#	68704
#	76714
#	87233
#	104829
#	167608
#	183235
#	212220
#	223944
#	237706
#	252144
#	261917
#	282305
#
# Disc length: 3949 seconds
#
# Revision: 0
# Processed by: cddbd v1.5.2PL0 Copyright (c) Steve Scherf et al.
# Submitted via: CDex 1.70beta2
#
DISCID=fe0f6b11
DTITLE=Dr Feelgood - Looking Back[CD05]
DYEAR=1995
DGENRE=Blues
TTITLE0=01 Lee Brilleaux (Talk)
TTITLE1=02 (Get your kicks on) route 66
TTITLE2=03 Lee Brilleaux (Talk)_0226103803
TTITLE3=04 Keep it out of sight
TTITLE4=05 Lee Brilleaux (Talk)_0226103909
TTITLE5=06 Lee Brilleaux and Wilko Johnson (Talk)
TTITLE6=07 Homework
TTITLE7=09 Down at the (other) doctors
TTITLE8=10 Dr. Feelgood
TTITLE9=11 Don't take but a few minutes
TTITLE10=12 Lee Brilleaux (Talk)_0226104440
TTITLE11=13Eileen
TTITLE12=14 A touch of class
TTITLE13=15 She got her eyes on you
TTITLE14=16 Lee Brilleaux (Talk)_0226104725
TTITLE15=17 solitary blues
TTITLE16=18 Looking at you
EXTD=YEAR: 1995
EXTT0=
EXTT1=
EXTT2=
EXTT3=
EXTT4=
EXTT5=
EXTT6=
EXTT7=
EXTT8=
EXTT9=
EXTT10=
EXTT11=
EXTT12=
EXTT13=
EXTT14=
EXTT15=
EXTT16=
PLAYORDER=
